<svg width="154" height="86" viewBox="0 0 154 86" fill="none" xmlns="http://www.w3.org/2000/svg">
<g id="Logo Freepry 1" clip-path="url(#clip0_386189_1468)">
<path id="Vector" d="M60.979 21.6106C61.169 13.712 67.6912 7.45628 75.6065 7.64585C83.2685 7.83541 89.4741 13.9647 89.6007 21.6106H96.9461C96.9461 9.66789 87.2578 0 75.2266 0C63.1953 0 53.5703 9.66789 53.5703 21.6106C53.5703 33.5533 63.2586 43.2212 75.2266 43.2212V35.9544C67.3746 35.9544 60.979 29.5092 60.979 21.6106Z" fill="#2037F7"/>
<path id="Vector_2" d="M90.7403 23.1271C83.015 23.1271 76.7461 29.3828 76.7461 37.0919V43.2844C79.2157 43.0948 81.6852 42.5261 83.9648 41.5151V36.6495C83.9648 33.1742 86.8144 30.3307 90.2971 30.3307H95.1729C96.1861 28.0559 96.756 25.5915 96.9459 23.1271H90.7403Z" fill="#78BFA4"/>
<path id="Vector_3" d="M136.081 53.8369L144.186 70.2028L150.582 53.9633L154.064 55.2903L145.199 77.7855V77.8487C144.693 78.9229 144.123 79.9971 143.426 80.9449C142.793 81.8928 141.97 82.7774 141.083 83.5357C140.197 84.2939 139.183 84.8626 138.17 85.305C137.094 85.7473 135.891 86 134.688 86C134.308 86 133.991 86 133.611 85.9368C133.421 85.9368 133.231 85.8737 133.105 85.8105L133.991 82.2087C134.054 82.2087 134.181 82.2087 134.244 82.2087C134.371 82.2087 134.498 82.2087 134.688 82.2087C135.004 82.2087 135.258 82.2087 135.574 82.1455C135.954 82.0823 136.334 82.0191 136.651 81.8296C137.284 81.64 137.79 81.3241 138.297 80.9449C138.804 80.5658 139.31 80.1235 139.69 79.618C140.133 79.1124 140.513 78.6069 140.83 78.0382C141.146 77.4695 141.463 76.9008 141.716 76.3321L142.286 74.8788L132.725 55.4166L136.081 53.8369Z" fill="#2037F7"/>
<path id="Vector_4" d="M6.20559 53.7737H0V57.3123H2.59622V74.3732H6.33224V57.3123H12.4112V53.7737H6.20559Z" fill="#2037F7"/>
<path id="Vector_5" d="M28.8126 57.7546C28.2427 57.5651 27.6095 57.4387 27.0396 57.4387C26.0264 57.4387 25.0133 57.8178 24.3167 58.5761C23.5568 59.3343 23.1769 60.3454 23.1769 61.4196V74.4365H19.6309V61.4196C19.6309 59.9662 20.0108 58.5761 20.7707 57.3755C21.5305 56.1749 22.607 55.1639 23.8735 54.532C24.8866 54.0897 25.9631 53.8369 27.0396 53.8369C27.9261 53.8369 28.8759 54.0265 29.6991 54.3424L28.8126 57.7546Z" fill="#2037F7"/>
<path id="Vector_6" d="M126.834 57.7546C126.264 57.565 125.631 57.4386 125.061 57.4386C124.048 57.3754 123.035 57.8178 122.338 58.576C121.578 59.3343 121.198 60.3453 121.198 61.4195V74.4364H117.652V61.4195C117.652 59.9662 118.032 58.576 118.792 57.3754C119.552 56.1749 120.628 55.1638 121.895 54.5319C123.731 53.7105 125.821 53.5841 127.721 54.3424L126.834 57.7546Z" fill="#2037F7"/>
<path id="Vector_7" d="M41.0332 73.5518C39.8301 73.0463 38.6903 72.288 37.7404 71.3402C36.7906 70.3923 36.0307 69.2549 35.5242 68.0544C34.4477 65.5268 34.4477 62.6201 35.5242 60.0926C36.6006 57.6282 38.5636 55.6693 41.0332 54.5951C42.2997 54.0264 43.6927 53.7737 45.0225 53.7737C47.5554 53.7737 50.025 54.7215 51.8613 56.4908C52.7478 57.3123 53.4444 58.3865 53.951 59.4607C54.4575 60.5981 54.7742 61.925 54.7108 63.1888L54.7742 64.9581H38.247C38.3737 65.7796 38.627 66.601 39.0069 67.2961C39.3868 67.9912 39.8934 68.6862 40.5266 69.1918C41.1598 69.7605 41.8564 70.1396 42.6163 70.4555C43.3761 70.7715 44.2626 70.8979 45.0858 70.8979C46.1623 70.8979 47.3021 70.6451 48.252 70.1396C49.2651 69.6341 50.0883 68.8758 50.6582 67.9912L53.5077 69.8868C52.6212 71.277 51.3547 72.4144 49.835 73.1727C48.3786 73.9309 46.7322 74.3732 45.0225 74.3732C43.6294 74.3732 42.2997 74.1205 41.0332 73.5518ZM50.2149 59.7134C49.835 59.2079 49.3284 58.7656 48.8219 58.3865C48.252 58.0073 47.6821 57.6914 47.0488 57.5018C45.0858 56.8699 42.9329 57.1859 41.2232 58.3865C40.0834 59.2079 39.2602 60.2821 38.6903 61.5459H51.1648C50.9115 60.914 50.6582 60.2821 50.2149 59.7134Z" fill="#2037F7"/>
<path id="Vector_8" d="M68.1973 73.5518C66.9941 73.0463 65.8543 72.288 64.9045 71.3402C63.9547 70.3923 63.1948 69.2549 62.6882 68.0544C61.6117 65.5268 61.6117 62.6201 62.6882 60.0926C63.7647 57.6282 65.7277 55.6694 68.1973 54.5951C69.4637 54.0264 70.8568 53.7737 72.1866 53.7737C76.0492 53.7105 79.5953 55.9853 81.1784 59.4607C81.6849 60.5981 82.0015 61.925 81.9382 63.1888L82.0015 64.9581H65.3478C65.4744 65.7796 65.7277 66.601 66.1076 67.2961C66.4876 67.9912 66.9941 68.6231 67.6274 69.1918C68.2606 69.6973 68.9571 70.1396 69.717 70.4555C70.4769 70.7715 71.3634 70.8979 72.1866 70.8979C73.2631 70.8979 74.4029 70.6451 75.3527 70.1396C76.3659 69.6341 77.189 68.8758 77.7589 67.9912L80.6085 69.8868C79.6586 71.277 78.4555 72.4144 76.9358 73.1727C75.4793 73.9309 73.833 74.3732 72.1233 74.3732C70.7935 74.3732 69.4004 74.1205 68.1973 73.5518ZM77.3157 59.7134C76.9358 59.2079 76.4292 58.7024 75.9226 58.3865C75.3527 58.0073 74.7828 57.6914 74.1496 57.5018C72.1866 56.8699 70.0336 57.1859 68.3239 58.3865C67.1841 59.2079 66.3609 60.2821 65.791 61.5459H78.2655C78.0756 60.914 77.7589 60.2821 77.3157 59.7134Z" fill="#2037F7"/>
<path id="Vector_9" d="M89.3477 54.216H92.8937V56.3645C93.8435 55.4798 94.92 54.8479 96.1231 54.3424C97.3263 53.9001 98.656 53.6473 99.9225 53.6473C101.316 53.6473 102.709 53.9001 104.038 54.4688C105.305 54.9743 106.445 55.7326 107.395 56.7436C108.344 57.6914 109.104 58.8288 109.674 60.0926C110.244 61.3564 110.497 62.7465 110.497 64.1999C110.497 65.59 110.244 66.9802 109.674 68.3071C108.598 70.8347 106.571 72.8567 104.038 73.931C102.772 74.4997 101.379 74.7524 99.9225 74.7524C98.656 74.7524 97.3263 74.4996 96.1231 74.0573C94.92 73.615 93.8435 72.9199 92.8937 72.0353V83.4725H89.3477V54.216ZM93.4636 66.917C94.5401 69.5077 97.1363 71.2138 99.9225 71.2138C100.872 71.2138 101.822 71.0243 102.709 70.6451C103.532 70.266 104.292 69.7605 104.925 69.1286C105.558 68.4967 106.065 67.7384 106.445 66.917C106.825 66.0323 107.015 65.1477 107.015 64.1999C107.015 63.252 106.825 62.3042 106.445 61.4828C106.065 60.6613 105.558 59.903 104.925 59.2711C104.292 58.6393 103.532 58.1337 102.709 57.7546C100.936 56.9963 98.9727 56.9963 97.263 57.7546C96.4398 58.1337 95.6799 58.6393 95.0467 59.2711C94.4134 59.903 93.9069 60.6613 93.5269 61.4828C93.147 62.3674 92.957 63.252 92.957 64.1999C92.8937 65.1477 93.0837 66.0323 93.4636 66.917Z" fill="#2037F7"/>
<path id="Vector_10" d="M2.5957 52.6363V49.4137C2.5957 45.3696 5.82514 42.147 9.87778 42.147H13.2339V45.8751H9.68781C7.85146 45.8751 6.39505 47.3285 6.39505 49.1609V52.6363H2.5957Z" fill="#78BFA4"/>
</g>
<defs>
<clipPath id="clip0_386189_1468">
<rect width="154" height="86" fill="white"/>
</clipPath>
</defs>
</svg>
